<svg width="57" height="62" viewBox="0 0 57 62" fill="none" xmlns="http://www.w3.org/2000/svg">
<g filter="url(#filter0_d_3436_178)">
<ellipse cx="28.6197" cy="26.6097" rx="13.8587" ry="16.6097" fill="white"/>
</g>
<g clip-path="url(#clip0_3436_178)">
<path d="M31.4573 19.77H26.597C25.0152 19.77 23.7283 21.3124 23.7283 23.2082V29.0334C23.7283 30.9292 25.0152 32.4715 26.597 32.4715H31.4574C33.0392 32.4715 34.3261 30.9292 34.3261 29.0334V23.2082C34.3261 21.3124 33.0392 19.77 31.4573 19.77V19.77ZM33.7048 29.0334C33.7048 30.5186 32.6966 31.7269 31.4573 31.7269H26.597C25.3577 31.7269 24.3496 30.5186 24.3496 29.0334V23.2082C24.3496 21.7229 25.3577 20.5146 26.597 20.5146H31.4574C32.6966 20.5146 33.7048 21.7229 33.7048 23.2082V29.0334Z" fill="black"/>
<path d="M29.0272 22.6479C27.4293 22.6479 26.1294 24.2059 26.1294 26.1209C26.1294 28.036 27.4293 29.5939 29.0272 29.5939C30.625 29.5939 31.9249 28.036 31.9249 26.1209C31.9249 24.2059 30.625 22.6479 29.0272 22.6479ZM29.0272 28.8493C27.772 28.8493 26.7507 27.6254 26.7507 26.1209C26.7507 24.6166 27.772 23.3926 29.0272 23.3926C30.2824 23.3926 31.3036 24.6166 31.3036 26.1209C31.3036 27.6254 30.2824 28.8493 29.0272 28.8493Z" fill="black"/>
<path d="M31.9942 21.4146C31.522 21.4146 31.1379 21.8749 31.1379 22.4408C31.1379 23.0067 31.522 23.4671 31.9942 23.4671C32.4664 23.4671 32.8505 23.0067 32.8505 22.4408C32.8505 21.8748 32.4664 21.4146 31.9942 21.4146ZM31.9942 22.7224C31.8647 22.7224 31.7592 22.596 31.7592 22.4408C31.7592 22.2854 31.8647 22.1592 31.9942 22.1592C32.1238 22.1592 32.2292 22.2854 32.2292 22.4408C32.2292 22.596 32.1238 22.7224 31.9942 22.7224Z" fill="black"/>
</g>
<defs>
<filter id="filter0_d_3436_178" x="0.760986" y="0" width="55.7173" height="61.2192" filterUnits="userSpaceOnUse" color-interpolation-filters="sRGB">
<feFlood flood-opacity="0" result="BackgroundImageFix"/>
<feColorMatrix in="SourceAlpha" type="matrix" values="0 0 0 0 0 0 0 0 0 0 0 0 0 0 0 0 0 0 127 0" result="hardAlpha"/>
<feOffset dy="4"/>
<feGaussianBlur stdDeviation="7"/>
<feColorMatrix type="matrix" values="0 0 0 0 0 0 0 0 0 0 0 0 0 0 0 0 0 0 0.15 0"/>
<feBlend mode="normal" in2="BackgroundImageFix" result="effect1_dropShadow_3436_178"/>
<feBlend mode="normal" in="SourceGraphic" in2="effect1_dropShadow_3436_178" result="shape"/>
</filter>
<clipPath id="clip0_3436_178">
<rect width="10.5978" height="12.7015" fill="white" transform="translate(23.7283 19.77)"/>
</clipPath>
</defs>
</svg>
